<svg id="Layer_1" xmlns="http://www.w3.org/2000/svg" viewBox="0 0 383.7 100"><style>.st0{fill:#12577e}.st1{fill:#549abc}</style><circle class="st0" cx="58.8" cy="74" r="12.7"/><path class="st1" d="M59.1 38.7h1.6c3-.2 5.9-1.4 8.1-3.7 5-5 5-13 0-18s-13-5-18 0c-3 3-4.1 7-3.6 10.8-1.4 7.8-8.7 8.9-11.9 9-3.6-.3-7.2 1-9.9 3.7-5 5-5 13 0 18s13 5 18 0c2.3-2.3 3.5-5.2 3.7-8.2v-.7c.3-9.5 8.5-10.8 12-10.9z"/><g><path class="st0" d="M72.6 49.6c0-1.8.3-3.5.9-5.2.6-1.6 1.4-3 2.6-4.2 1.1-1.2 2.5-2.2 4.1-2.9 1.6-.7 3.4-1.1 5.5-1.1 1.3 0 2.6.1 3.7.4 1.1.2 2.2.6 3.3 1L91 43.4c-.7-.3-1.4-.5-2.2-.7-.8-.2-1.7-.3-2.7-.3-2.1 0-3.7.7-4.7 2s-1.6 3-1.6 5.2c0 2.3.5 4 1.5 5.3 1 1.2 2.7 1.9 5.1 1.9.9 0 1.8-.1 2.8-.2 1-.2 1.9-.4 2.7-.8l1 5.9c-.8.4-1.9.7-3.1.9-1.2.3-2.6.4-4.1.4-2.3 0-4.3-.3-6-1-1.7-.7-3-1.6-4.1-2.8-1.1-1.2-1.9-2.6-2.4-4.2-.4-1.8-.6-3.5-.6-5.4zM107.9 62.7c-2.1 0-3.8-.3-5.1-.7-1.3-.4-2.3-1-3.1-1.8-.8-.8-1.3-1.7-1.5-2.7s-.4-2.3-.4-3.6V26.1l7.2-1.2v27.5c0 .6 0 1.2.1 1.7s.3.9.6 1.3.7.6 1.2.9c.5.2 1.2.4 2.1.4l-1.1 6zM136.6 49.6c0 2-.3 3.8-.9 5.4-.6 1.6-1.4 3.1-2.5 4.2-1.1 1.2-2.4 2.1-3.9 2.7-1.5.6-3.2 1-5.1 1-1.9 0-3.5-.3-5.1-1-1.5-.6-2.8-1.5-3.9-2.7-1.1-1.2-1.9-2.6-2.5-4.2-.6-1.6-.9-3.5-.9-5.4 0-2 .3-3.8.9-5.4.6-1.6 1.5-3 2.6-4.2 1.1-1.2 2.4-2 3.9-2.7 1.5-.6 3.2-1 5-1 1.8 0 3.5.3 5 1 1.5.6 2.8 1.5 3.9 2.7s1.9 2.5 2.5 4.2c.7 1.6 1 3.4 1 5.4zm-7.3 0c0-2.2-.4-3.9-1.3-5.2-.9-1.3-2.1-1.9-3.8-1.9s-2.9.6-3.8 1.9c-.9 1.3-1.3 3-1.3 5.2s.4 4 1.3 5.3c.9 1.3 2.2 1.9 3.8 1.9s2.9-.6 3.8-1.9c.8-1.4 1.3-3.1 1.3-5.3zM163.6 61.4c-1.2.4-2.8.7-4.7 1s-3.9.5-6 .5-3.9-.3-5.4-.9-2.6-1.4-3.4-2.4-1.4-2.3-1.8-3.7c-.4-1.4-.5-3-.5-4.8V37h7.2v13.2c0 2.3.3 4 .9 5 .6 1 1.7 1.5 3.4 1.5.5 0 1.1 0 1.6-.1.6 0 1.1-.1 1.5-.2V37h7.2v24.4zM192.6 61.4c-.6.2-1.4.4-2.2.6s-1.7.3-2.6.5c-.9.1-1.8.2-2.8.3-.9.1-1.8.1-2.7.1-2.1 0-3.9-.3-5.6-.9s-3-1.5-4.1-2.6c-1.1-1.1-2-2.5-2.6-4.1-.6-1.6-.9-3.4-.9-5.4 0-2 .3-3.9.8-5.5s1.2-3 2.2-4.2c1-1.2 2.1-2 3.5-2.6s3-.9 4.8-.9c1 0 1.9.1 2.7.3.8.2 1.6.5 2.4.8V26.1l7.2-1.2v36.5zm-16.2-12c0 2.2.5 4 1.5 5.3 1 1.3 2.5 2 4.4 2 .6 0 1.2 0 1.8-.1s1-.1 1.3-.2v-13c-.4-.3-1-.5-1.8-.7-.7-.2-1.4-.3-2.2-.3-3.3.1-5 2.4-5 7zM206.6 57.1c1.3 0 2.2-.1 2.8-.4s.8-.8.8-1.5c0-.6-.4-1.1-1.1-1.5-.7-.4-1.8-.9-3.2-1.5-1.1-.4-2.1-.8-3-1.3-.9-.4-1.7-1-2.3-1.6-.6-.6-1.1-1.4-1.5-2.2-.4-.9-.5-1.9-.5-3.1 0-2.4.9-4.2 2.6-5.6 1.8-1.4 4.2-2.1 7.2-2.1 1.5 0 3 .1 4.4.4 1.4.3 2.5.6 3.4.9l-1.2 5.6c-.8-.3-1.7-.5-2.7-.8-1-.2-2.1-.3-3.3-.3-2.2 0-3.4.6-3.4 1.9 0 .3 0 .5.1.8.1.2.3.4.6.6.3.2.7.4 1.2.7.5.2 1.1.5 1.9.8 1.6.6 2.9 1.2 3.9 1.7 1 .6 1.8 1.2 2.4 1.8.6.7 1 1.4 1.2 2.2s.4 1.7.4 2.8c0 2.5-.9 4.4-2.8 5.7-1.9 1.3-4.5 1.9-7.9 1.9-2.2 0-4.1-.2-5.6-.6-1.5-.4-2.5-.7-3.1-1l1.2-5.8c1.2.5 2.5.9 3.7 1.1 1.3.3 2.5.4 3.8.4zM236.5 48.8c0-2.3-.3-3.9-.9-4.9s-1.6-1.4-3-1.4c-.4 0-.9 0-1.4.1-.5 0-.9.1-1.4.2v19.5h-7.2V37.8c.6-.2 1.3-.3 2.1-.5s1.7-.3 2.6-.5 1.8-.3 2.8-.3c1-.1 1.9-.1 2.8-.1 1.8 0 3.3.2 4.4.7 1.1.5 2.1 1 2.8 1.7 1-.7 2.2-1.3 3.5-1.7 1.3-.4 2.6-.6 3.7-.6 2 0 3.7.3 5 .8 1.3.6 2.3 1.4 3.1 2.4.8 1 1.3 2.2 1.6 3.6.3 1.4.4 3 .4 4.7v14.3h-7.2V48.8c0-2.3-.3-3.9-.9-4.9-.6-1-1.6-1.4-3-1.4-.4 0-.9.1-1.6.3s-1.3.4-1.7.7c.2.7.4 1.5.4 2.3.1.8.1 1.7.1 2.6v13.8h-7.2V48.8zM271.8 29.7c0 1.3-.4 2.3-1.3 3.1-.8.8-1.8 1.1-3 1.1s-2.2-.4-3-1.1c-.8-.8-1.3-1.8-1.3-3.1s.4-2.3 1.3-3.1c.8-.8 1.8-1.1 3-1.1s2.2.4 3 1.1c.9.7 1.3 1.8 1.3 3.1zm-.7 32.5H264V37h7.2v25.2zM277.6 30.7l7.2-1.2V37h8.6v6h-8.6v8.9c0 1.5.3 2.7.8 3.6.5.9 1.6 1.3 3.2 1.3.8 0 1.6-.1 2.4-.2.8-.1 1.6-.3 2.2-.6l1 5.6c-.9.4-1.8.7-2.9.9-1.1.3-2.4.4-3.9.4-2 0-3.6-.3-4.8-.8-1.3-.5-2.3-1.3-3.1-2.2-.8-.9-1.3-2.1-1.6-3.4-.3-1.3-.5-2.8-.5-4.5V30.7zM299.2 62.2V26.1l7.2-1.2V37c.5-.2 1.1-.3 1.8-.5.8-.1 1.5-.2 2.2-.2 2 0 3.8.3 5.1.8 1.4.6 2.4 1.4 3.3 2.4.8 1 1.4 2.2 1.7 3.6.3 1.4.5 3 .5 4.7v14.3h-7.2V48.8c0-2.3-.3-3.9-.9-4.9-.6-1-1.7-1.4-3.3-1.4-.6 0-1.2.1-1.8.2-.6.1-1.1.2-1.5.4v19.2h-7.1z"/></g></svg>